# xmcd
#
# Track frame offsets: 
#        182
#        12907
#        27725
#        41920
#        55715
#        69260
#        81777
#        97007
#        106757
#        121505
#        136662
#        152957
#
# Disc length: 2254 seconds
#
# Revision: 1
# Processed by: cddbd v1.5.2PL0 Copyright (c) Steve Scherf et al.
# Submitted via: ExactAudioCopy v0.95b4
#
DISCID=9208cc0c
DTITLE=Various Artist - Αξέχαστα Λαϊκά Και Ρεμπέτικα
DYEAR=1995
DGENRE=Λαϊκά
TTITLE0=Περπινιάδης Βαγγέλης - Δεν Έχω Παλάτια Και Λεφτά
TTITLE1=Ζαγοραίος Σπύρος - ’ναψε Το Τσιγάρο
TTITLE2=Μενιδιάτης Μιχάλης - Πετραδάκι Πετραδάκι
TTITLE3=Χατζηαντωνίου Γιώργος - Τώρα Κλαις Γιατί Κλαις
TTITLE4=Διονυσίου Στράτος - Χθες Το Βράδυ Στην Ταβέρνα
TTITLE5=Αγγελόπουλος Μανώλης - Όσο Αξίζεις Εσύ
TTITLE6=Χατζηαντωνίου Γιώργος - Δεν Θέλω Την Συμπόνια Κανενός
TTITLE7=Μπιθικώτσης Γρηγόρης - Ένας ’λητης Πέθανε
TTITLE8=Περπινιάδης Βαγγέλης - Στ' Αποστόλη Το Κουτούκι
TTITLE9=Καζαντζίδης Στέλιος - Καρδιά Πληγωμένη
TTITLE10=Διαμάντη Λίτσα - Από Σένα Θα Πάω
TTITLE11=Διονυσίου Στράτος - Καλύτερα Μαζί Σου
EXTD=
EXTT0=
EXTT1=
EXTT2=
EXTT3=
EXTT4=
EXTT5=
EXTT6=
EXTT7=
EXTT8=
EXTT9=
EXTT10=
EXTT11=
PLAYORDER=
